/* XPM */
static char *_1f7b973431f4b83f1a46dc0aa118322[] = {
/* columns rows colors chars-per-pixel */
"32 32 179 2 ",
"   c black",
".  c #020202",
"X  c gray1",
"o  c #040404",
"O  c gray2",
"+  c gray3",
"@  c #090909",
"#  c gray4",
"$  c gray5",
"%  c gray6",
"&  c #101010",
"*  c #111111",
"=  c gray7",
"-  c #131313",
";  c gray8",
":  c #161616",
">  c gray9",
",  c #181818",
"<  c #191919",
"1  c gray10",
"2  c #1B1B1B",
"3  c gray11",
"4  c #1D1D1D",
"5  c #1E1E1E",
"6  c gray12",
"7  c #202020",
"8  c #212020",
"9  c gray13",
"0  c #222222",
"q  c #232222",
"w  c #232323",
"e  c #252424",
"r  c gray15",
"t  c #272727",
"y  c gray16",
"u  c gray17",
"i  c #2C2B2B",
"p  c #2C2C2C",
"a  c #2F2E2E",
"s  c #2F2F2F",
"d  c gray19",
"f  c #313030",
"g  c #313131",
"h  c #323232",
"j  c gray20",
"k  c #343333",
"l  c #353434",
"z  c gray21",
"x  c #383737",
"c  c gray22",
"v  c #3A3939",
"b  c #3C3B3B",
"n  c #3D3C3C",
"m  c #3E3D3D",
"M  c #3F3E3E",
"N  c #403F3F",
"B  c gray25",
"V  c #414040",
"C  c #414141",
"Z  c #424141",
"A  c #444343",
"S  c #454444",
"D  c #464545",
"F  c #474646",
"G  c gray28",
"H  c #484747",
"J  c #484848",
"K  c #494949",
"L  c #4A4949",
"P  c gray29",
"I  c #4B4A4A",
"U  c #4C4B4B",
"Y  c #4C4C4C",
"T  c #4D4C4C",
"R  c #4E4D4D",
"E  c #4F4E4E",
"W  c #504F4F",
"Q  c #505050",
"!  c #515050",
"~  c #525151",
"^  c gray32",
"/  c #535353",
"(  c #545353",
")  c gray33",
"_  c #555454",
"`  c #565555",
"'  c #575656",
"]  c #585757",
"[  c #595858",
"{  c #5A5959",
"}  c #5A5A5A",
"|  c #5B5A5A",
" . c #5B5B5B",
".. c #5C5B5B",
"X. c gray36",
"o. c #5D5D5D",
"O. c #5E5D5D",
"+. c gray37",
"@. c #5F5E5E",
"#. c #605F5F",
"$. c #616060",
"%. c gray38",
"&. c #626161",
"*. c #636262",
"=. c #646363",
"-. c #656464",
";. c #666565",
":. c gray40",
">. c #676767",
",. c #686767",
"<. c #696868",
"1. c #6B6A6A",
"2. c gray42",
"3. c #6D6C6C",
"4. c #6F6E6E",
"5. c #6F6F6F",
"6. c #706F6F",
"7. c gray44",
"8. c #727171",
"9. c #727272",
"0. c #737272",
"q. c #777676",
"w. c #777777",
"e. c #797878",
"r. c #7A7979",
"t. c #7C7B7B",
"y. c gray49",
"u. c #7E7D7D",
"i. c #7F7E7E",
"p. c #807F7F",
"a. c #808080",
"s. c #818080",
"d. c #828181",
"f. c gray51",
"g. c #848484",
"h. c #858484",
"j. c #868686",
"k. c #898888",
"l. c #8A8989",
"z. c #8B8B8B",
"x. c #8C8B8B",
"c. c #8E8E8E",
"v. c #8F8E8E",
"b. c gray56",
"n. c #909090",
"m. c #919090",
"M. c #929191",
"N. c #939292",
"B. c #949393",
"V. c gray58",
"C. c #979797",
"Z. c #989797",
"A. c #989898",
"S. c #9A9999",
"D. c #9A9A9A",
"F. c #9C9B9B",
"G. c #9D9C9C",
"H. c #9D9D9D",
"J. c #9E9D9D",
"K. c gray62",
"L. c #A0A0A0",
"P. c gray63",
"I. c #A2A1A1",
"U. c #A3A2A2",
"Y. c gray64",
"T. c #A4A4A4",
"R. c #A5A4A4",
"E. c #A7A6A6",
"W. c #A7A7A7",
"Q. c #A9A8A8",
"!. c #A9A9A9",
"~. c #AAA9A9",
"^. c #AAAAAA",
"/. c #ABAAAA",
"(. c gray67",
"). c #ACABAB",
"_. c gray68",
"`. c #AFAFAF",
"'. c None",
/* pixels */
"'.'.'.'.'.'.'.'.'.'.'.'.'.'.T e Z '.'.'.'.'.'.'.'.'.'.'.'.'.'.'.",
"'.'.'.'.'.'.'.'.'.'.'.'.j.=.o.>.#.#.t.'.'.'.'.'.'.'.'.'.'.'.'.'.",
"'.'.'.'.'.'.'.'.'.L.H.z.=./ ] ..| / | f.H.D.'.'.'.'.'.'.'.'.'.'.",
"'.'.'.'.'.'.'.L.F.>.x _ '.'.'.'.'.'.'.#.m _ n./.'.'.'.'.'.'.'.'.",
"'.'.'.'.'.'.Y.0.z '.'.'.'.'.'.'.'.'.'.'.'.'.f  .Y.'.'.'.'.'.'.'.",
"'.'.'.'.'.L.W | '.'.'.'.'.'.'.'.'.'.'.'.'.'.'.'.N V.'.'.'.'.'.'.",
"'.'.'...V.P '.'.'.'.'.'.'.'.'.'.'.'.'.'.'.'.'.'.'.Z v.,.'.'.'.'.",
"'.'.a r./ '.'.'.'.'.'.'.'.'.'.'.'.'.'.'.'.'.'.'.'.'.A g.m &.'.'.",
"'.f =.4.'.'.'.'.'.'.'.'.'.'.'.'.'.'.'.'.'.'.'.'.'.'.'.] i.9 '.'.",
"'.m r.S '.'.'.'.'.'.'.'.'.'.'.'.'.'.'.'.'.'.'.'.'.'.'.'.4._ >.'.",
"'.f.#.'.'.'.'.'.'.'.'.'.'.'.'.'.'.'.'.'.'.'.'.'.'.'.'.'._ x.'.'.",
"'.D.S '.'.'.'.'.'.'.'.'.'.'.'.'.'.'.'.'.'.'.'.'.'.'.'.'.'.1.n.'.",
"'.,.'.'.'.'.'.'.'.'.'.'.'.'.'.'.'.'.'.'.'.'.'.'.'.'.'.'.'.( R.'.",
"_./ '.'.'.'.'.- '.'.'.y w '.'.< 9 f '.'.'.P 5 ; f '.'.'.'.H /.'.",
"E.U '.'.'.'.'.* > '.'.< ; '.5 < '.e # '.o.$ '.'.'.'.'.'.'./ L.'.",
").T '.'.'.'.'.z s '.P '.2 '.9 2 '.'.# f < '.'._ '.'.'.'.'.3.V.'.",
").T '.'.'.'.'.f '.5 a '.; '.9 5 '.'.& G < '.'.B . '.'.'.'.3.n.'.",
"(.T '.'.'.'.'.y '.+ p '.* '.9 ; Z 9 9 '.>.o T / o '.'.'.'.| H.'.",
"/.Q '.'.'.'.'.'.'.'.'.'.'.'.'.* * '.'.'.'.'.X . '.'.'.'.'.m _.'.",
"'.o.'.'.'.'.'.'.'.'.'.'.'.'.'.'.'.'.'.'.'.'.'.'.'.'.'.'.'./ R.'.",
"'.n.T '.'.'.'.'.'.'.'.'.'.'.'.'.'.'.'.'.'.'.'.'.'.'.'.'.'.&.V.'.",
"'.v...'.'.'.'.'.'.'.'.'.'.'.'.'.'.'.'.'.'.'.'.'.'.'.'.'.T z.'.'.",
"'.P 0.H '.'.'.'.'.'.'.'.'.'.'.'.'.'.'.'.'.'.'.'.'.'.'.'.>.>.&.'.",
"'.a 0.&.'.'.'.'.'.'.'.'.'.'.'.'.'.'.'.'.'.'.'.'.'.'.'.U p.w '.'.",
"'.'.i f.S '.'.'.'.'.'.'.'.'.'.'.'.'.'.'.'.'.'.'.'.'.Z f.S / '.'.",
"'.'.'.o.b.P '.'.'.'.'.'.'.'.'.'.'.'.'.'.'.'.'.'.'.S i.0.'.'.'.'.",
"'.'.'.'.'.D.S '.'.'.'.'.'.'.'.'.'.'.'.'.'.'.'.'.v i.H.'.'.'.'.'.",
"'.'.'.'.'.'.H...k '.'.'.'.'.'.'.'.'.'.'.'.'.'.S V./.'.'.'.'.'.'.",
"'.'.'.'.'.'.'.L.z.P v '.'.'.'.'.'.'.'.'.Z G w.R.'.'.'.'.'.'.'.'.",
"'.'.'.'.'.'.'.'.'.H.V.6.P S | &.&.P S &.v.Z.).'.'.'.'.'.'.'.'.'.",
"'.'.'.'.'.'.'.'.'.'.'.'.f.0.w.i.w.0.i.Q.'.'.'.'.'.'.'.'.'.'.'.'.",
"'.'.'.'.'.'.'.'.'.'.'.'.'.'.Z e x o.'.'.'.'.'.'.'.'.'.'.'.'.'.'."
};
