/* XPM */
static char *_3ebdbac2ade46a884414e6cf0bca08f[] = {
/* columns rows colors chars-per-pixel */
"128 128 59 1 ",
"  c #010101",
". c #0C0C0C",
"X c #131313",
"o c #181717",
"O c #1D1C1C",
"+ c #201F1F",
"@ c #232222",
"# c #282727",
"$ c #2C2B2B",
"% c #302F2F",
"& c #343333",
"* c #383737",
"= c #3C3B3B",
"- c #403F3F",
"; c #444343",
": c #484747",
"> c #4C4B4B",
", c #504F4F",
"< c #535353",
"1 c #585757",
"2 c #5C5B5B",
"3 c #605F5F",
"4 c #646363",
"5 c #686767",
"6 c #6C6B6B",
"7 c #706F6F",
"8 c #747373",
"9 c #787777",
"0 c #7C7B7B",
"q c #807F7F",
"w c #848484",
"e c #888787",
"r c #8C8B8B",
"t c #908F8F",
"y c #8F9090",
"u c #949393",
"i c #989797",
"p c #9C9B9B",
"a c #A09F9F",
"s c #A4A4A4",
"d c #A8A7A7",
"f c #ACABAB",
"g c #B0AFAF",
"h c #B4B4B4",
"j c #B8B7B7",
"k c #BCBCBC",
"l c #C0BFBF",
"z c #BFC0C0",
"x c #C3C3C3",
"c c #C8C7C7",
"v c #CCCBCB",
"b c #D0CFCF",
"n c #D4D4D4",
"m c #D8D7D7",
"M c #D7D8D8",
"N c #DCDBDB",
"B c #E0DFDF",
"V c #E2E1E1",
"C c None",
/* pixels */
"CCCCCCCCCCCCCCCCCCCCCCCCCCCCCCCCCCCCCCCCCCCCCCCCCCCCCC:%++@@@@@##@@@@+++#;CCCCCCCCCCCCCCCCCCCCCCCCCCCCCCCCCCCCCCCCCCCCCCCCCCCCCC",
"CCCCCCCCCCCCCCCCCCCCCCCCCCCCCCCCCCCCCCCCCCCCCCCCCCCp1*#@#%&==;:>>>;-=*%#@#%>0CCCCCCCCCCCCCCCCCCCCCCCCCCCCCCCCCCCCCCCCCCCCCCCCCCC",
"CCCCCCCCCCCCCCCCCCCCCCCCCCCCCCCCCCCCCCCCCCCCCCCCCC93126qupsfghkkkkjggdaiw94118wCCCCCCCCCCCCCCCCCCCCCCCCCCCCCCCCCCCCCCCCCCCCCCCCC",
"CCCCCCCCCCCCCCCCCCCCCCCCCCCCCCCCCCCCCCCCCCCCCCCrieeifznNNBNMmnnbnnnnMMNBNmxjsewutCCCCCCCCCCCCCCCCCCCCCCCCCCCCCCCCCCCCCCCCCCCCCCC",
"CCCCCCCCCCCCCCCCCCCCCCCCCCCCCCCCCCCCCCCCCxsdieepjvNNMbcjsuw0965225689qrpgxbnMNnxduwypsjCCCCCCCCCCCCCCCCCCCCCCCCCCCCCCCCCCCCCCCCC",
"CCCCCCCCCCCCCCCCCCCCCCCCCCCCCCCCCCCCCCCCsw8efnVVMxde5,-&%%######@#####%%&=:20pknVVMzi99uCCCCCCCCCCCCCCCCCCCCCCCCCCCCCCCCCCCCCCCC",
"CCCCCCCCCCCCCCCCCCCCCCCCCCCCCCCCCCCCCsr9udxnNvfw5<;&$+OOOOOOOOO@O++O+OOOOOO#%=>29pxMMvjp00iCCCCCCCCCCCCCCCCCCCCCCCCCCCCCCCCCCCCC",
"CCCCCCCCCCCCCCCCCCCCCCCCCCCCCCCCCCCCitigcnvfe5,&#+++@#$%=,125558865541,;&####OO#%;3qpxnnksuefCCCCCCCCCCCCCCCCCCCCCCCCCCCCCCCCCCC",
"CCCCCCCCCCCCCCCCCCCCCCCCCCCCCCCCCCCywsnBvs9>#OOoO+%-&;>15qipdgkxxkjdspw82>;*&*#OOOO#=5ikMBkrwpCCCCCCCCCCCCCCCCCCCCCCCCCCCCCCCCCC",
"CCCCCCCCCCCCCCCCCCCCCCCCCCCCCCCCftwgMNcu1%#@@@%;,4wCCCCCCCCCCCCCCCCCCCCCCCCCCC6<;%@@+@#:0jMBxuwpCCCCCCCCCCCCCCCCCCCCCCCCCCCCCCCC",
"CCCCCCCCCCCCCCCCCCCCCCCCCCCCCCCw0dMNce,%#OO#&<5CCCCCCCCCCCCCCCCCCCCCCCCCCCCCCCCCC82=#@O@%;6gMNzrqdCCCCCCCCCCCCCCCCCCCCCCCCCCCCCC",
"CCCCCCCCCCCCCCCCCCCCCCCCCCCCCwwpxNct1&@O+#>CCCCCCCCCCCCCCCCCCCCCCCCCCCCCCCCCCCCCCCCCC1%+OO#>9jNnfewfCCCCCCCCCCCCCCCCCCCCCCCCCCCC",
"CCCCCCCCCCCCCCCCCCCCCCCCCCCjtugnba5*@@#&1<CCCCCCCCCCCCCCCCCCCCCCCCCCCCCCCCCCCCCCCCCCCCw1=#++%1txMxpypCCCCCCCCCCCCCCCCCCCCCCCCCCC",
"CCCCCCCCCCCCCCCCCCCCCCCCCCpeebVxw-@O@#*1eCCCCCCCCCCCCCCCCCCCCCCCCCCCCCCCCCCCCCCCCCCCCCCi7=%#OO%5fVMswwCCCCCCCCCCCCCCCCCCCCCCCCCC",
"CCCCCCCCCCCCCCCCCCCCCCCCCi0sNMp,%@@%-CCCCCCCCCCCCCCCCCCCCCCCCCCCCCCCCCCCCCCCCCCCCCCCCCCCCCC<%@@#=0cVkwefCCCCCCCCCCCCCCCCCCCCCCCC",
"CCCCCCCCCCCCCCCCCCCCCCCC9tkNv9=@O@*5CCCCCCCCCCCCCCCCCCCCCCCCCCCCCCCCCCCCCCCCCCCCCCCCCCCCCCCC9,#O#%4dVniwpCCCCCCCCCCCCCCCCCCCCCCC",
"CCCCCCCCCCCCCCCCCCCCCCs9icNg5%+O%<CCCCCCCCCCCCCCCCCCCCCCCCCCCCCCCCCCCCCCCCCCCCCCCCCCCCCCCCCCCCC*+O#,inMswuCCCCCCCCCCCCCCCCCCCCCC",
"CCCCCCCCCCCCCCCCCCCCCdtivbp1#@@-8CCCCCCCCCCCCCCCCCCCCCCCCCCCCCCCCCCCCCCCCCCCCCCCCCCCCCCCCCCCCCCC,$+#-qvndwuCCCCCCCCCCCCCCCCCCCCC",
"CCCCCCCCCCCCCCCCCCCCd0uMMy-OO#-0CCCCCCCCCCCCCCCCCCCCCCCCCCCCCCCCCCCCCCCCCCCCCCCCCCCCCCCCCCCCCCCCC,%OO%8cVdwqCCCCCCCCCCCCCCCCCCCC",
"CCCCCCCCCCCCCCCCCCCswpnbq=@@%4CCCCCCCCCCCCCCCCCCCCCCCCCCCCCCCCCCCCCCCCCCCCCCCCCCCCCCCCCCCCCCCCCCCC>=@@#5kVjwuCCCCCCCCCCCCCCCCCCC",
"CCCCCCCCCCCCCCCCCCi0sNc9*@O&7CCCCCCCCCCCCCCCCCCCCCCCCCCCCCCCCCCCCCCCCCCCCCCCCCCCCCCCCCCCCCCCCCCCCCCC;@O%2kMke9CCCCCCCCCCCCCCCCCC",
"CCCCCCCCCCCCCCCCp77uMv9&++*0CCCCCCCCCCCCCCCCCCCCCCCCCCCCCCCCCCCCCCCCCCCCCCCCCCCCCCCCCCCCCCCCCCCCCCCCC,@O#3hVj94wCCCCCCCCCCCCCCCC",
"CCCCCCCCCCCCCCC851env9*+@-wCCCCCCCCCCCCCCCCCCCCCCCCCCCCCCCCCCCCCCCCCCCCCCCCCCCCCCCCCCCCCCCCCCCCCCCCCCC1#+#4jMd241CCCCCCCCCCCCCCC",
"CCCCCCCCCCCCCC;*%0nM0&++=eCCCCCCCCCCCCCCCCCCCCCCCCCCCCCCCCCCCCCCCCCCCCCCCCCCCCCCCCCCCCCCCCCCCCCCCCCCCCC<#O@4cVp>#<CCCCCCCCCCCCCC",
"CCCCCCCCCCCC0:%%9cMe=@@-uCCCCCCCCCCCCCCCCCCCCCCCCCCCCCCCCCCCCCCCCCCCCCCCCCCCCCCCCCCCCCCCCCCCCCCCCCCCCCCw1#+%5vBu;#=5CCCCCCCCCCCC",
"CCCCCCCCCCC1&O#2knp=@O=wCCCCCCCCCCCCCCCCCCCCCCCCCCCCCCCCCCCCCCCCCCCCCCCCCCCCCCCCCCCCCCCCCCCCCCCCCCCCCCCCC,@O%7nnw%+#;CCCCCCCCCCC",
"CCCCCCCCC1&@O@;dVd>@O&0CCCCCCCCCCCCCCCCCCCCCCCCCCCCCCCCCCCCCCCCCCCCCCCCCCCCCCCCCCCCCCCCCCCCCCCCCCCCCCCCCCC,O@&eMv5#O+&>9CCCCCCCC",
"CCCCCCCC2%@+@*eNz5#@%9CCCCCCCCCCCCCCCCCCCCCCCCCCCCCCCCCCCCCCCCCCCCCCCCCCCCCCCCCCCCCCCCCCCCCCCCCCCCCCCCCCCCC;@@;pBh,@++#>qCCCCCCC",
"CCCCCCC<@++O#7nn8%O#5CCCCCCCCCCCCCCCCCCCCCCCCCCCCCCCCCCCCCCCCCCCCCCCCCCCCCCCCCCCCCCCCCCCCCCCCCCCCCCCCCCCCCC4&@@1kBi=@++@&qCCCCCC",
"CCCCCC3%O+@@2jMt=@@,CCCCCCCCCCCCCCCCCCCCCCCCCCCCCCCCCCCCCCCCCCCCCCCCCCCCCCCCCCCCCCCCCCCCCCCCCCCCCCCCCCCCCCCC9#O%7vn9&+++@,uCCCCC",
"CCCCCC*@O@@&iNg,@+*CCCCCCCCCCCCCCCCCCCCCCCCCCCCCCCCCCCCCCCCCCCCCCCCCCCCCCCCCCCCCCCCCCCCCCCCCCCCCCCCCCCCCCCCCC1#+*eVk1++@+#4CCCCC",
"CCCCC2#+@@#5vn6#O*5CCCCCCCCCCCCCCCCCCCCCCCCCCCCCCCCCCCCCCCCCCCCCCCCCCCCCCCCCCCCCCCCCCCCCCCCCCCCCCCCCCCCCCCCCCC=@O>kVu&@O@+;dCCCC",
"CCCCr=O@O#:gMp&@#4CCCCCCCCCCCCCCCCCCCCCCCCCCCCCCCCCCCCCCCCCCCCCCCCCCCCCCCCCCCCCCCCCCCCCCCCCCCCCCCCCCCCCCCCCCCC9&O%8nx6#+@+%9CCCC",
"CCCCt%O@O&0Nj1@@=CCCCCCCCCCCCCCCCCCCCCCCCCCCCCCCCCCCCCCCCCCCCCCCCCCCCCCCCCCCCCCCCCCCCCCCCCCCCCCCCCCCCCCCCCCCCCC3@O*sBg-@++@1CCCC",
"CCCCt#O@O<zMw%+%CCCCCCCCCCCCCCCCCCCCCCCCCCCCCCCCCCCCCCCCCCCCCCCCCCCCCCCCCCCCCCCCCCCCCCCCCCCCCCCCCCCCCCCCCCCCCCCC=O#4lM0%O@O,CCCC",
"CCCC0#O+%0Vf<O@<CCCCCCCCCCCCCCCCCCCCCCCCCCCCCCCCCCCCCCCCCCCCCCCCCCCCCCCCCCCCCCCCCCCCCCCCCCCCCCCCCCCCCCCCCCCCCCCCC%@%tVj;O+o:CCCC",
"CCCC9#O+1jN8%o*0CCCCCCCCCCCCCCCCCCCCCCCCCCCCCCCCCCCCCCCCCCCCCCCCCCCCCCCCCCCCCCCCCCCCCCCCCCCCCCCCCCCCCCCCCCCCCCCCC<@O2xN6#+O;CCCC",
"CCCC9#O%wMg>@@<CCCCCCCCCCCCCCCCCCCCCCCCCCCCCCCCCCCCCCCCCCCCCCCCCCCCCCCCCCCCCCCCCCCCCCCCCCCCCCCCCCCCCCCCCCCCCCCCCC0%O&eVf>+o;CCCC",
"CCCC9#O<hN9%+=6CCCCCCCCCCCCCCCCCCCCCCCCCCCCCCCCCCCCCCCCCCCCCCCCCCCCCCCCCCCCCCCCCCCCCCCCCCCCCCCCCCCCCCCCCCCCCCCCCCC;@@1cM8#o;CCCC",
"CCCC0##wNk;+#,CCCCCCCCCCCCCCCCCCCCCCCCCCCCCCCCCCCCCCCCCCCCCCCCCCCCCCCCCCCCCCCCCCCCCCCCCCCCCCCCCCCCCCCCCCCCCCCCCCCC4%+*tVs>O;CCCC",
"CCCC9#=dNe#+=5CCCCCCCCCCCCCCCCCCCCCCCCCCCCCCCCCCCCCCCCCCCCCCCCCCCCCCCCCCCCCCCCCCCCCCCCCCCCCCCCCCCCCCCCCCCCCCCCCCCCC;@@1bb6O;CCCC",
"CCCC9%4vx<#+3CCCCCCCCCCCCCCCCCCCCCCCCCCCCCCCCCCCCCCCCCCCCCCCCCCCCCCCCCCCCCCCCCCCCCCCCCCCCCCCCCCCCCCCCCCCCCCCCCCCCCC4%O*dVt#;CCCC",
"CCCC9=ins&+#CCCCCCCCCCCCCCCCCCCCCCCCCCCCCCCCCCCCCCCCCCCCCCCCCCCCCCCCCCCCCCCCCCCCCCCCCCCCCCCCCCCCCCCCCCCCCCCCCCCCCCCC,O%8Mg::CCCC",
"CCCC0>kb0@+=CCCCCCCCCCCCCCCCCCCCCCCCCCCCCCCCCCCCCCCCCCCCCCCCCCCCCCCCCCCCCCCCCCCCCCCCCCCCCCCCCCCCCCCCCCCCCCCCCCCCCCCCCO#;xb8,CCCC",
"CCCCw6Mg<@#5CCCCCCCCCCCCCCCCCCCCCCCCCCCCCCCCCCCCCCCCCCCCCCCCCCCCCCCCCCCCCCCCCCCCCCCCCCCCCCCCCCCCCCCCCCCCCCCCCCCCCCCCC%@%pMp1CCCC",
"CCCCupNt&+%CCCCCCCCCCCCCCCCCCCCCCCCCCCCCCCCCCCCCCCCCCCCCCCCCCCCCCCCCCCCCCCCCCCCCCCCCCCCCCCCCCCCCCCCCCCCCCCCCCCCCCCCCC,@#9vl6CCCC",
"CCCCixn6O@:CCCCCCCCCCCCCCCCCCCCCCCCCCCCCCCCCCCCCCCCCCCCCCCCCCCCCCCCCCCCCCCCCCCCCCCCCCCCCCCCCCCCCCCCCCCCCCCCCCCCCCCCCCC#@>gnwgCCC",
"CCCCemk1o%5CCCCCCCCCCCCCCCCCCCCCCCCCCCCCCCCCCCCCCCCCCCCCCCCCCCCCCCCCCCCCCCCCCCCCCCCCCCCCCCCCCCCCCCCCCCCCCCCCCCCCCCCCCC&@%pMasCCC",
"CCCCwVs;o&tCCCCCCCCCCCCCCCCCCCCCCCCCCCCCCCCCCCCCCCCCCCCCCCCCCCCCCCCCCCCCCCCCCCCCCCCCCCCCCCCCCCCCCCCCCCCCCCCCCCCCCCCCCC:@@qMkeCCC",
"CCCipN0&o;CCCCCCCCCCCCCCCCCCCCCCCCCCCCCCCCCCCCCCCCCCCCCCCCCCCCCCCCCCCCCCCCCCCCCCCCCCCCCCCCCCCCCCCCCCCCCCCCCCCCCCCCCCCC4#O5vn0CCC",
"CCxujn4#OCCCCCCCCCCCCCCCCCCCCCCCCCCCCCCCCCCCCCCCCCCCCCCCCCCCCCCCCCCCCCCCCCCCCCCCCCCCCCCCCCCCCCCCCCCCCCCCCCCCCCCCCCCCCCw%O<gNwCCC",
"CCfpcx>@#CCCCCCCCCCCCCCCCCCCCCCCCCCCCCCCCCCCCCCCCCCCCCCCCCCCCCCCCCCCCCCCCCCCCCCCCCCCCCCCCCCCCCCCCCCCCCCCCCCCCCCCCCCCCCC&O=iBuCCC",
"CCpinf-O*CCCCCCCCCCCCCCCCCCCOOOOOO#CCCCCCCCCCC<@OOOO#4CCCCC>#OOOO+O+++#&>9sCCCCCCCCCCCCCe,%OoX..XXOO=0CCCCCCCCCCCCCCCCC%O#0VspCC",
"CCtinp*+;CCCCCCCCCCCCCCCCCCC       2CCCCCCCCCC%      ,CCCCC%.            X%4CCCCCCCCCCC,O.          .2CCCCCCCCCCCCCCCCC###6MjuxC",
"CCwpMw&+,CCCCCCCCCCCCCCCCCCC       *6CCCCCCCC6.     .,CCCCC&.    .         O<CCCCCCCCC;.     .OOo.  X2CCCCCCCCCCCCCCCCC&#@2bcefC",
"CCedn7%@=CCCCCCCCCCCCCCCCCCC   ..  O=CCCCCCCC<  ..  .<CCCCC&.   %11<>=#.    o4CCCCCCC;.   .%,48973,**6CCCCCCCCCCCCCCCCC,%O<xnwsC",
"CCtgb2##-CCCCCCCCCCCCCCCCCCC   O+  .CCCCCCCCr% .O.  .>CCCCC%X  OCCCCCC2&X    O9CCCCC3.   .>CCCCCCCCCqiCCCCCCCCCCCCCCCCC5*O:gNwpC",
"CCuxc>+#>CCCCCCCCCCCCCCCCCCC   %&.  #CCCCCCC<o X=O  .,CCCCC&.  OCCCCCCCC;O   .2CCCCwO   o2CCCCCCCCCCCCCCCCCCCCCCCCCCCCC9;O-sVtiC",
"Chicx=+%,CCCCCCCCCCCCCCCCCCC   =>o  .6CCCCCC%. O2#  .>CCCCC&.  OCCCCCCCCC*.   *0CCC1    :CCCCCCCCCCCCCCCCCCCCCCCCCCCCCCr;O=uVtuC",
"Cfibl&O%<CCCCCCCCCCCCCCCCCCC   =3*.  <CCCCCCO .&CO  .<CCCCC&.  OCCCCCCCCCC.   O>CCe*   oCCCCCCCCCCCCCCCCCCCCCCCCCCCCCCCi>O*rVutC",
"Cspnk%O&1CCCCCCCCCCCCCCCCCCC   *98o  %CCCCC5X .CCO  .,CCCCC&.  OCCCCCCCCCCC.  X&CC5@   *CCCCCCCCCCCCCCCCCCCCCCCCCCCCCCCa,O&wVitC",
"Cssnh%O&1CCCCCCCCCCCCCCCCCCC   *CCO  O6CCCi=  OCCO  .,CCCCC&.  OCCCCCCCCCCC.  X%CC>X  .1CCCCCy99999990CCCCCCCCCCCCCCCCCd,O%0VpuC",
"Cpsnf%O*4CCCCCCCCCCCCCCCCCCC   *CC;. .=CCC9@ .%CCO  .,CCCCC&.  OCCCCCCCCCCC.  .%CC=.  .4CCCCu<OOOOOOO#CCCCCCCCCCCCCCCCCf<O%9BpuC",
"Cisnd%O=5CCCCCCCCCCCCCCCCCCC   &CC4O  OCCC6. O<CCO  .>CCCCC&X  OCCCCCCCCCCC.  .%CC*.  .6CCCCw*       .CCCCCCCCCCCCCCCCCh1+%6NsiC",
"Cidmd#O;5CCCCCCCCCCCCCCCCCCC   *CCC%  X4CC,  =tCCO  .,CCCCC&.  OCCCCCCCCCCC.  X&CC=.  .2CCCCr:....   .CCCCCCCCCCCCCCCCCh1O$6NsiC",
"Cpsmf%O*4CCCCCCCCCCCCCCCCCCC   *CCCC. .:CC# .2CCCO  .<CCCCC&.  OCCCCCCCCCCC.  O;CC,X  .,CCCChe443$.  .CCCCCCCCCCCCCCCCCf1O$9BaiC",
"Capnj%O&1CCCCCCCCCCCCCCCCCCC   *CCCCO  @6C. .9CCCO  .>CCCCC&.  OCCCCCCCCCC+   %5CC4@   #CCCCCCCCC>o  XCCCCCCCCCCCCCCCCCs,O%0NpyC",
"Cspnk%O%1CCCCCCCCCCCCCCCCCCC   *CCCCC. .,;  %uCCCO  .,CCCCC%X  OCCCCCCCCC,.   ,iCCr*   .CCCCCCCCC-O  .CCCCCCCCCCCCCCCCCp,O%wVitC",
"Cdpbk&O%<CCCCCCCCCCCCCCCCCCC   *CCCCC.  Oo .1CCCCO  .>CCCCC&X  OCCCCCCCC2O   .9CCCC1    %CCCCCCCC,O  .CCCCCCCCCCCCCCCCCi>O*eVutC",
"Cjivx*@%<CCCCCCCCCCCCCCCCCCC   *CCCCC@     oCCCCCO  .,CCCCC&.  oCCCCCCC3X   .;CCCCCwO   .#2CCCCCC5.  .CCCCCCCCCCCCCCCCCe;+*uVuuC",
"CCuzc>@%:CCCCCCCCCCCCCCCCCCC   *CCCC9;     %CCCCCO  .>CCCCC&.  .-5652*#.   .&CCCCCCC4.   .@;5wyw9*.  XCCCCCCCCCCCCCCCCC9-O-aVriC",
"CCrhn1##=CCCCCCCCCCCCCCCCCCC   *CCCCC4.   X1CCCCCO  .<CCCCC&.   .XXX..     %CCCCCCCCC>.    .oOOo..   .CCCCCCCCCCCCCCCCC4*+:gMepC",
"CCedn7$@=CCCCCCCCCCCCCCCCCCC   *CCCCC9O   @eCCCCCO  .,CCCCC&.           .O1CCCCCCCCCCC2O.            OCCCCCCCCCCCCCCCCC,%+<knwsC",
"CCwpMe&+,CCCCCCCCCCCCCCCCCCC...;CCCCCC;X..=CCCCCC#..o1CCCCC=O....X..Xo#*=5CCCCCCCCCCCCC4%#X      .X@=<CCCCCCCCCCCCCCCCC%#+2bxefC",
"CCtiMp*+;CCCCCCCCCCCCCCCCCCC+O+,CCCCCCC#OOCCCCCCCC+O#5CCCCCC%OO+O+O+@%>9CCCCCCCCCCCCCCCCC<#.     .@>CCCCCCCCCCCCCCCCCCC@@#5mjuxC",
"CCpibf-+*CCCCCCCCCCCCCCCCCCCCCCCCCCCCCCCCCCCCCCCCCCCCCCCCCCCCCCCCCCCCCCCCCCCCCCCCCCCCCCCCCCCCCCCCCCCCCCCCCCCCCCCCCCCCCC%O#0BsaCC",
"CCficx>+#CCCCCCCCCCCCCCCCCCCCCCCCCCCCCCCCCCCCCCCCCCCCCCCCCCCCCCCCCCCCCCCCCCCCCCCCCCCCCCCCCCCCCCCCCCCCCCCCCCCCCCCCCCCCCC*O*uVtCCC",
"CCxuhM3#OCCCCCCCCCCCCCCCCCCCCCCCCCCCCCCCCCCCCCCCCCCCCCCCCCCCCCCCCCCCCCCCCCCCCCCCCCCCCCCCCCCCCCCCCCCCCCCCCCCCCCCCCCCCCC0%O<fNwCCC",
"CCCiiBq&o;CCCCCCCCCCCCCCCCCCCCCCCCCCCCCCCCCCCCCCCCCCCCCCCCCCCCCCCCCCCCCCCCCCCCCCCCCCCCCCCCCCCCCCCCCCCCCCCCCCCCCCCCCCCC2#O5vn0CCC",
"CCCCeBa:o&tCCCCCCCCCCCCCCCCCCCCCCCCCCCCCCCCCCCCCCCCCCCCCCCCCCCCCCCCCCCCCCCCCCCCCCCCCCCCCCCCCCCCCCCCCCCCCCCCCCCCCCCCCCC;+@0MkeCCC",
"CCCCrnk1O$5CCCCCCCCCCCCCCCCCCCCCCCCCCCCCCCCCCCCCCCCCCCCCCCCCCCCCCCCCCCCCCCCCCCCCCCCCCCCCCCCCCCCCCCCCCCCCCCCCCCCCCCCCCC&@&imssCCC",
"CCCCuzn6+@;CCCCCCCCCCCCCCCCCCCCCCCCCCCCCCCCCCCCCCCCCCCCCCCCCCCCCCCCCCCCCCCCCCCCCCCCCCCCCCCCCCCCCCCCCCCCCCCCCCCCCCCCCCC#@>fnefCCC",
"CCCCupNr&+%CCCCCCCCCCCCCCCCCCCCCCCCCCCCCCCCCCCCCCCCCCCCCCCCCCCCCCCCCCCCCCCCCCCCCCCCCCCCCCCCCCCCCCCCCCCCCCCCCCCCCCCCCC>@@7xx7CCCC",
"CCCCe7Mg<+#5CCCCCCCCCCCCCCCCCCCCCCCCCCCCCCCCCCCCCCCCCCCCCCCCCCCCCCCCCCCCCCCCCCCCCCCCCCCCCCCCCCCCCCCCCCCCCCCCCCCCCCCCC%+%pnp1CCCC",
"CCCC0>zb9#@=CCCCCCCCCCCCCCCCCCCCCCCCCCCCCCCCCCCCCCCCCCCCCCCCCCCCCCCCCCCCCCCCCCCCCCCCCCCCCCCCCCCCCCCCCCCCCCCCCCCCCCCCC+@;kn8>CCCC",
"CCCC9*uMs%@#CCCCCCCCCCCCCCCCCCCCCCCCCCCCCCCCCCCCCCCCCCCCCCCCCCCCCCCCCCCCCCCCCCCCCCCCCCCCCCCCCCCCCCCCCCCCCCCCCCCCCCCC>O%7ng;>CCCC",
"CCCC0%4cx<@O3CCCCCCCCCCCCCCCCCCCCCCCCCCCCCCCCCCCCCCCCCCCCCCCCCCCCCCCCCCCCCCCCCCCCCCCCCCCCCCCCCCCCCCCCCCCCCCCCCCCCCC2%O*sVu#;CCCC",
"CCCC9$=fNe%O=5CCCCCCCCCCCCCCCCCCCCCCCCCCCCCCCCCCCCCCCCCCCCCCCCCCCCCCCCCCCCCCCCCCCCCCCCCCCCCCCCCCCCCCCCCCCCCCCCCCCCC-@O1vb6O;CCCC",
"CCCC9##wMk;@@,CCCCCCCCCCCCCCCCCCCCCCCCCCCCCCCCCCCCCCCCCCCCCCCCCCCCCCCCCCCCCCCCCCCCCCCCCCCCCCCCCCCCCCCCCCCCCCCCCCCC2&+&wVs:O;CCCC",
"CCCC9#+<jM8%O=6CCCCCCCCCCCCCCCCCCCCCCCCCCCCCCCCCCCCCCCCCCCCCCCCCCCCCCCCCCCCCCCCCCCCCCCCCCCCCCCCCCCCCCCCCCCCCCCCCCC-@+1xN8#o;CCCC",
"CCCC9#O%wMf;@@<CCCCCCCCCCCCCCCCCCCCCCCCCCCCCCCCCCCCCCCCCCCCCCCCCCCCCCCCCCCCCCCCCCCCCCCCCCCCCCCCCCCCCCCCCCCCCCCCCC9%O&wNg>@o;CCCC",
"CCCC9#O+1jN8%O*0CCCCCCCCCCCCCCCCCCCCCCCCCCCCCCCCCCCCCCCCCCCCCCCCCCCCCCCCCCCCCCCCCCCCCCCCCCCCCCCCCCCCCCCCCCCCCCCCC<@O2kN6#+O;CCCC",
"CCCCq#O+%0Vf,O#<CCCCCCCCCCCCCCCCCCCCCCCCCCCCCCCCCCCCCCCCCCCCCCCCCCCCCCCCCCCCCCCCCCCCCCCCCCCCCCCCCCCCCCCCCCCCCCCCC#@%tNj;O@O;CCCC",
"CCCCr#O@+,xM0%+%CCCCCCCCCCCCCCCCCCCCCCCCCCCCCCCCCCCCCCCCCCCCCCCCCCCCCCCCCCCCCCCCCCCCCCCCCCCCCCCCCCCCCCCCCCCCCCCC=+#2kM0%O+O,CCCC",
"CCCCt$OOO&qNj1@@=CCCCCCCCCCCCCCCCCCCCCCCCCCCCCCCCCCCCCCCCCCCCCCCCCCCCCCCCCCCCCCCCCCCCCCCCCCCCCCCCCCCCCCCCCCCCCC2++*sNf-@+@@1CCCC",
"CCCCt*@@+#;gnp&+@5CCCCCCCCCCCCCCCCCCCCCCCCCCCCCCCCCCCCCCCCCCCCCCCCCCCCCCCCCCCCCCCCCCCCCCCCCCCCCCCCCCCCCCCCCCCC8&O%6bx7#O@O%9CCCC",
"CCCCg2#+@O#6vn6#O&5CCCCCCCCCCCCCCCCCCCCCCCCCCCCCCCCCCCCCCCCCCCCCCCCCCCCCCCCCCCCCCCCCCCCCCCCCCCCCCCCCCCCCCCCCCC*@O>jVu*@@+O;sCCCC",
"CCCCCi*@++@&iNg>@+=CCCCCCCCCCCCCCCCCCCCCCCCCCCCCCCCCCCCCCCCCCCCCCCCCCCCCCCCCCCCCCCCCCCCCCCCCCCCCCCCCCCCCCCCCC1#O&wNk1O@O@#4CCCCC",
"CCCCCC3%O@@@1jNt=+@<CCCCCCCCCCCCCCCCCCCCCCCCCCCCCCCCCCCCCCCCCCCCCCCCCCCCCCCCCCCCCCCCCCCCCCCCCCCCCCCCCCCCCCCC8#@%6vn9%@@O@,tCCCCC",
"CCCCCCC<@++O#8nn7%O#5CCCCCCCCCCCCCCCCCCCCCCCCCCCCCCCCCCCCCCCCCCCCCCCCCCCCCCCCCCCCCCCCCCCCCCCCCCCCCCCCCCCCCC4&+@1jNi;@@O@&qCCCCCC",
"CCCCCCCC1%@+@*eNk4#@%9CCCCCCCCCCCCCCCCCCCCCCCCCCCCCCCCCCCCCCCCCCCCCCCCCCCCCCCCCCCCCCCCCCCCCCCCCCCCCCCCCCCCC;+#;pBh,@++#>wCCCCCCC",
"CCCCCCCCC1*@O+;dVd>OO%0CCCCCCCCCCCCCCCCCCCCCCCCCCCCCCCCCCCCCCCCCCCCCCCCCCCCCCCCCCCCCCCCCCCCCCCCCCCCCCCCCCC,O+&enb5#OO%,9CCCCCCCC",
"CCCCCCCCCCC1&+#2xni;@O=wCCCCCCCCCCCCCCCCCCCCCCCCCCCCCCCCCCCCCCCCCCCCCCCCCCCCCCCCCCCCCCCCCCCCCCCCCCCCCCCCC,#O%8nnw%+#:7CCCCCCCCCC",
"CCCCCCCCCCCC9>%%9cne=@@-uCCCCCCCCCCCCCCCCCCCCCCCCCCCCCCCCCCCCCCCCCCCCCCCCCCCCCCCCCCCCCCCCCCCCCCCCCCCCCCw1#+$5cNu;#=5aCCCCCCCCCCC",
"CCCCCCCCCCCCCC;*&qMM0&O+*eCCCCCCCCCCCCCCCCCCCCCCCCCCCCCCCCCCCCCCCCCCCCCCCCCCCCCCCCCCCCCCCCCCCCCCCCCCCCC<#O#4xVa,#<CCCCCCCCCCCCCC",
"CCCCCCCCCCCCCCC951enc9*+@;wCCCCCCCCCCCCCCCCCCCCCCCCCCCCCCCCCCCCCCCCCCCCCCCCCCCCCCCCCCCCCCCCCCCCCCCCCCC1#O#2jNd43<CCCCCCCCCCCCCCC",
"CCCCCCCCCCCCCCCCi77iBc9&OO&0CCCCCCCCCCCCCCCCCCCCCCCCCCCCCCCCCCCCCCCCCCCCCCCCCCCCCCCCCCCCCCCCCCCCCCCCC,@O#2jVj94wCCCCCCCCCCCCCCCC",
"CCCCCCCCCCCCCCCCCCp0dBc9*#+&8CCCCCCCCCCCCCCCCCCCCCCCCCCCCCCCCCCCCCCCCCCCCCCCCCCCCCCCCCCCCCCCCCCCCCCC;@O%2jNkr9CCCCCCCCCCCCCCCCCC",
"CCCCCCCCCCCCCCCCCCCswsnbq=@@%2CCCCCCCCCCCCCCCCCCCCCCCCCCCCCCCCCCCCCCCCCCCCCCCCCCCCCCCCCCCCCCCCCCCC>=@@#5kVjeuCCCCCCCCCCCCCCCCCCC",
"CCCCCCCCCCCCCCCCCCCCdwiMmt=OO#;0CCCCCCCCCCCCCCCCCCCCCCCCCCCCCCCCCCCCCCCCCCCCCCCCCCCCCCCCCCCCCCCCC,%OO%8cVfwwCCCCCCCCCCCCCCCCCCCC",
"CCCCCCCCCCCCCCCCCCCCCstpbbp<#@@-9CCCCCCCCCCCCCCCCCCCCCCCCCCCCCCCCCCCCCCCCCCCCCCCCCCCCCCCCCCCCCCC<#O#;wvMfeuCCCCCCCCCCCCCCCCCCCCC",
"CCCCCCCCCCCCCCCCCCCCCCs9icNf5%OO#1CCCCCCCCCCCCCCCCCCCCCCCCCCCCCCCCCCCCCCCCCCCCCCCCCCCCCCCCCCCCC*@O#<unmseuCCCCCCCCCCCCCCCCCCCCCC",
"CCCCCCCCCCCCCCCCCCCCCCCC0ukNv9=@O@=5CCCCCCCCCCCCCCCCCCCCCCCCCCCCCCCCCCCCCCCCCCCCCCCCCCCCCCCC9,#O@%4fVnpepCCCCCCCCCCCCCCCCCCCCCCC",
"CCCCCCCCCCCCCCCCCCCCCCCCCi0sNnu,$@@%=CCCCCCCCCCCCCCCCCCCCCCCCCCCCCCCCCCCCCCCCCCCCCCCCCCCCCC,%@@#=0cVxwegCCCCCCCCCCCCCCCCCCCCCCCC",
"CCCCCCCCCCCCCCCCCCCCCCCCCCpeebBx0-@O##*2eCCCCCCCCCCCCCCCCCCCCCCCCCCCCCCCCCCCCCCCCCCCCCCi8=%#OO%5fVMd0wCCCCCCCCCCCCCCCCCCCCCCCCCC",
"CCCCCCCCCCCCCCCCCCCCCCCCCCCjyugnbp5=@+#%1<CCCCCCCCCCCCCCCCCCCCCCCCCCCCCCCCCCCCCCCCCCCCw4=#@@%1txMxptpCCCCCCCCCCCCCCCCCCCCCCCCCCC",
"CCCCCCCCCCCCCCCCCCCCCCCCCCCCCewpxNxe1&@OO#:CCCCCCCCCCCCCCCCCCCCCCCCCCCCCCCCCCCCCCCCCC1%OOO$>9gNnfrwdCCCCCCCCCCCCCCCCCCCCCCCCCCCC",
"CCCCCCCCCCCCCCCCCCCCCCCCCCCCCCCwqdMBkw>%#@@#%<5CCCCCCCCCCCCCCCCCCCCCCCCCCCCCCCCCC04=#@@@%;8fNNze0sCCCCCCCCCCCCCCCCCCCCCCCCCCCCCC",
"CCCCCCCCCCCCCCCCCCCCCCCCCCCCCCCCftwfMNcr<%@@@#%%@*2CCCCCCCCCCCCCCCCCCCCCCCCCCC;#%*#@@##:0jMVxyqpCCCCCCCCCCCCCCCCCCCCCCCCCCCCCCCC",
"CCCCCCCCCCCCCCCCCCCCCCCCCCCCCCCCCCCtwdnVcs8;#+OO@#*-&->150usdfkxckjdspe82,;=%*%#OoO#=5ikMNkewpCCCCCCCCCCCCCCCCCCCCCCCCCCCCCCCCCC",
"CCCCCCCCCCCCCCCCCCCCCCCCCCCCCCCCCCCCiepfvnvdw5>&#+@O###&=>124568876541,;&%##@++#%;4qaxnnkaytdCCCCCCCCCCCCCCCCCCCCCCCCCCCCCCCCCCC",
"CCCCCCCCCCCCCCCCCCCCCCCCCCCCCCCCCCCCCse9udxnMvsw5<;&#@OOOOOOOO+OO+OOOOOOOO+#%=,29pxnMcjp09dCCCCCCCCCCCCCCCCCCCCCCCCCCCCCCCCCCCCC",
"CCCCCCCCCCCCCCCCCCCCCCCCCCCCCCCCCCCCCCCCs08wgnVVnxse5,=&%%$$#########%%%%*>20pknVVNzi99yCCCCCCCCCCCCCCCCCCCCCCCCCCCCCCCCCCCCCCCC",
"CCCCCCCCCCCCCCCCCCCCCCCCCCCCCCCCCCCCCCCCCksdiwrpjbMNnbcksuw9965224589qrpgcbnNNnzstwyaajCCCCCCCCCCCCCCCCCCCCCCCCCCCCCCCCCCCCCCCCC",
"CCCCCCCCCCCCCCCCCCCCCCCCCCCCCCCCCCCCCCCCCCCCCCCepewigcnMBBMMnnnbvbnnMNNBNnvjsewrp0CCCCCCCCCCCCCCCCCCCCCCCCCCCCCCCCCCCCCCCCCCCCCC",
"CCCCCCCCCCCCCCCCCCCCCCCCCCCCCCCCCCCCCCCCCCCCCCCCCC931260ypdfghjkzkjgfdsie94118yhcCCCCCCCCCCCCCCCCCCCCCCCCCCCCCCCCCCCCCCCCCCCCCCC",
"CCCCCCCCCCCCCCCCCCCCCCCCCCCCCCCCCCCCCCCCCCCCCCCCCCCp1*%@@%&==;:>,>;-**%#@#%>9CCCCCCCCCCCCCCCCCCCCCCCCCCCCCCCCCCCCCCCCCCCCCCCCCCC",
"CCCCCCCCCCCCCCCCCCCCCCCCCCCCCCCCCCCCCCCCCCCCCCCCCCCCCC;%@@@@@@@#@#@@@@+O#;CCCCCCCCCCCCCCCCCCCCCCCCCCCCCCCCCCCCCCCCCCCCCCCCCCCCCC"
};
