/* XPM */
static char *_e456702b0ed48c980fcd4a60c6b509d[] = {
/* columns rows colors chars-per-pixel */
"64 64 46 1 ",
"  c #010101",
". c #0C0C0C",
"X c #141414",
"o c #181717",
"O c #1C1B1B",
"+ c #201F1F",
"@ c #242323",
"# c #282727",
"$ c #2C2B2B",
"% c #302F2F",
"& c #333333",
"* c #383737",
"= c #3D3C3C",
"- c #403F3F",
"; c #444343",
": c #484747",
"> c #4C4B4B",
", c #545353",
"< c #585757",
"1 c #5B5B5B",
"2 c #636363",
"3 c #6B6B6B",
"4 c #706F6F",
"5 c #747474",
"6 c #787777",
"7 c #7B7B7B",
"8 c #807F7F",
"9 c #858585",
"0 c #8B8B8B",
"q c #908F8F",
"w c #949494",
"e c #989797",
"r c #9C9C9C",
"t c #A09F9F",
"y c #A3A3A3",
"u c #A8A7A7",
"i c #ACACAC",
"p c #B0AFAF",
"a c #B4B4B4",
"s c #B8B7B7",
"d c #BCBCBC",
"f c #C0BFBF",
"g c #C3C3C3",
"h c #C8C7C7",
"j c #CACACA",
"k c None",
/* pixels */
"kkkkkkkkkkkkkkkkkkkkkkkkkkkkk5;@=5kkkkkkkkkkkkkkkkkkkkkkkkkkkkkk",
"kkkkkkkkkkkkkkkkkkkkkkkkkkkk=OOOoO%3kkkkkkkkkkkkkkkkkkkkkkkkkkkk",
"kkkkkkkkkkkkkkkkkkkkkkkkkk>&=>,<,>=&=kkkkkkkkkkkkkkkkkkkkkkkkkkk",
"kkkkkkkkkkkkkkkkkkkkkkk9rridgssaadfdatt9kkkkkkkkkkkkkkkkkkkkkkkk",
"kkkkkkkkkkkkkkkkkkkkqyfdp03>=*%#$%=>29idguqkkkkkkkkkkkkkkkkkkkkk",
"kkkkkkkkkkkkkkkkkkepgi5;@@#%,25753,*@@@=3ygarkkkkkkkkkkkkkkkkkkk",
"kkkkkkkkkkkkkkkkqigr,@@;3kkkkkkkkkkkkk3;#@;qgprkkkkkkkkkkkkkkkkk",
"kkkkkkkkkkkkkkkedi,@%kkkkkkkkkkkkkkkkkkkk<=@;rgykkkkkkkkkkkkkkkk",
"kkkkkkkkkkkkkkig5@#kkkkkkkkkkkkkkkkkkkkkkkkk%@2dpqkkkkkkkkkkkkkk",
"kkkkkkkkkkkk0ap;O>kkkkkkkkkkkkkkkkkkkkkkkkkkk>O&ygekkkkkkkkkkkkk",
"kkkkkkkkkkkege#$5kkkkkkkkkkkkkkkkkkkkkkkkkkkkkk&@9hqkkkkkkkkkkkk",
"kkkkkkkkkk0g0O;kkkkkkkkkkkkkkkkkkkkkkkkkkkkkkkkk;O6j0kkkkkkkkkkk",
"kkkkkkkkk2s0O>kkkkkkkkkkkkkkkkkkkkkkkkkkkkkkkkkkk,O5h3kkkkkkkkkk",
"kkkkkkk<%urO>kkkkkkkkkkkkkkkkkkkkkkkkkkkkkkkkkkkkk<O9s=;kkkkkkkk",
"kkkkkk%O9s#;kkkkkkkkkkkkkkkkkkkkkkkkkkkkkkkkkkkkkkk;+yuO#2kkkkkk",
"kkkkk#o1h;%kkkkkkkkkkkkkkkkkkkkkkkkkkkkkkkkkkkkkkkkk-%d6o@4kkkkk",
"kkkk=o%s5+kkkkkkkkkkkkkkkkkkkkkkkkkkkkkkkkkkkkkkkkkkk@<j;o%kkkkk",
"kkkk@O9p@>kkkkkkkkkkkkkkkkkkkkkkkkkkkkkkkkkkkkkkkkkkk2Ort+O7kkkk",
"kkk0o=g,%kkkkkkkkkkkkkkkkkkkkkkkkkkkkkkkkkkkkkkkkkkkkk&=h,X<kkkk",
"kkk8O9yO2kkkkkkkkkkkkkkkkkkkkkkkkkkkkkkkkkkkkkkkkkkkkkkOqyO<kkkk",
"kkk7&f,%kkkkkkkkkkkkkkkkkkkkkkkkkkkkkkkkkkkkkkkkkkkkkkk*=g;,kkkk",
"kkk73p@2kkkkkkkkkkkkkkkkkkkkkkkkkkkkkkkkkkkkkkkkkkkkkkkk@y9<kkkk",
"kkk9u6@kkkkkkkkkkkkkkkkkkkkkkkkkkkkkkkkkkkkkkkkkkkkkkkkk#1a3kkkk",
"kkked==kkkkkkkkkkkkkkkkkkkkkkkkkkkkkkkkkkkkkkkkkkkkkkkkk;%aekkkk",
"kkkep@5kkkkkkkkkkkkkkkkkkkkkkkkkkkkkkkkkkkkkkkkkkkkkkkkkk@qakkkk",
"kkka9Okkkkkkkkkkkkkkkkkkkkkkkkkkkkkkkkkkkkkkkkkkkkkkkkkkk&5skkkk",
"kkus2#kkkkkkkkkOO@kkkkk=OO,kk=++OO@,kkkkkkk>O..X=kkkkkkkk%>sakkk",
"kkws>;kkkkkkkkk   <kkkkX  =kk+  o.  X<kkkkO .+@XOkkkkkkkk$*sikkk",
"kkta**kkkkkkkkk O Okkk2 o =kk@ #kkkO Xkkk@ #kkkkkkkkkkkkk<%prkkk",
"kkpp#;kkkkkkkkk =XXkkkOX% =kk@ @kkkk. >k< Xkkkkkkkkkkkkkk7@yykkk",
"kkii@>kkkkkkkkk <- 1kk.kk =kk@ #kkkko Ok% =kkkkkkkkkkkkkk0@eukkk",
"kkiu@<kkkkkkkkk ;k #k1.kk =kk@ #kkkkO OkO <kk*.oo*kkkkkkkq@qikkk",
"kkiu@<kkkkkkkkk ;k.Xk@Okk =kk@ #kkkkO @k@ ;kk<&. Okkkkkkke@qikkk",
"kkip@>kkkkkkkkk ;ko =.,kk =kk@ @kkkko 1k; okkkk# +kkkkkkk9@eykkk",
"kkpp#;kkkkkkkkk ;kk. .kkk =kk@ #kkk% +kk7  %kkk% +kkkkkkk5@yykkk",
"kkra=*kkkkkkkkk -kk@ @kkk =kk@ .#@  okkkk>. O*%  @kkkkkkk<%prkkk",
"kkqs>;kkkkkkkkk.>kk,.>kkk.>kk%X...@;kkkkkk<O   .*kkkkkkkk#*sukkk",
"kkid1%kkkkkkkkkkkkkkkkkkkkkkkkkkkkkkkkkkkkkkkkkkkkkkkkkkk%:sakkk",
"kkka9Okkkkkkkkkkkkkkkkkkkkkkkkkkkkkkkkkkkkkkkkkkkkkkkkkkk&4skkkk",
"kkkep@5kkkkkkkkkkkkkkkkkkkkkkkkkkkkkkkkkkkkkkkkkkkkkkkkkk@qakkkk",
"kkked==kkkkkkkkkkkkkkkkkkkkkkkkkkkkkkkkkkkkkkkkkkkkkkkkk=%pekkkk",
"kkk9u5#kkkkkkkkkkkkkkkkkkkkkkkkkkkkkkkkkkkkkkkkkkkkkkkkk$<a3kkkk",
"kkk74p@2kkkkkkkkkkkkkkkkkkkkkkkkkkkkkkkkkkkkkkkkkkkkkkkk@e9,kkkk",
"kkk7%d,%kkkkkkkkkkkkkkkkkkkkkkkkkkkkkkkkkkkkkkkkkkkkkkk*=f>,kkkk",
"kkk7O9rO2kkkkkkkkkkkkkkkkkkkkkkkkkkkkkkkkkkkkkkkkkkkkkkO0yO<kkkk",
"kkk0O=g,%kkkkkkkkkkkkkkkkkkkkkkkkkkkkkkkkkkkkkkkkkkkkk%=g,X1kkkk",
"kkkk@o9p@>kkkkkkkkkkkkkkkkkkkkkkkkkkkkkkkkkkkkkkkkkkk2Oer@O7kkkk",
"kkkk;o%s5@kkkkkkkkkkkkkkkkkkkkkkkkkkkkkkkkkkkkkkkkkkk@,h;o%kkkkk",
"kkkkk#o1h;%kkkkkkkkkkkkkkkkkkkkkkkkkkkkkkkkkkkkkkkkk=%d7o@4kkkkk",
"kkkkkk%O9a#;kkkkkkkkkkkkkkkkkkkkkkkkkkkkkkkkkkkkkkk;OyuO#2kkkkkk",
"kkkkkkk<%urO,kkkkkkkkkkkkkkkkkkkkkkkkkkkkkkkkkkkkk<O9s=>kkkkkkkk",
"kkkkkkkkk2sqO>kkkkkkkkkkkkkkkkkkkkkkkkkkkkkkkkkkk,O5h3kkkkkkkkkk",
"kkkkkkkkkkqh0O;kkkkkkkkkkkkkkkkkkkkkkkkkkkkkkkkk;O5jqkkkkkkkkkkk",
"kkkkkkkkkkkefe@%5kkkkkkkkkkkkkkkkkkkkkkkkkkkkkk%@9jqkkkkkkkkkkkk",
"kkkkkkkkkkkk0sp;O>kkkkkkkkkkkkkkkkkkkkkkkkkkk>O*yhwkkkkkkkkkkkkk",
"kkkkkkkkkkkkkkif5@#kkkkkkkkkkkkkkkkkkkkkkkkk%@2dpqkkkkkkkkkkkkkk",
"kkkkkkkkkkkkkkkedu,@%kkkkkkkkkkkkkkkkkkkk<=@;rgykkkkkkkkkkkkkkkk",
"kkkkkkkkkkkkkkkkwide,##%kkkkkkkkkkkkkkk=%@;qgpekkkkkkkkkkkkkkkkk",
"kkkkkkkkkkkkkkkkkkqpdu5;##@&,25753<*#@#=2ygarkkkkkkkkkkkkkkkkkkk",
"kkkkkkkkkkkkkkkkkkkkquddiq3>=&%#%%=>29isguqkkkkkkkkkkkkkkkkkkkkk",
"kkkkkkkkkkkkkkkkkkkkkkk9rrpddssaasgdariqkkkkkkkkkkkkkkkkkkkkkkkk",
"kkkkkkkkkkkkkkkkkkkkkkkkkk;*=>,<<>=*=kkkkkkkkkkkkkkkkkkkkkkkkkkk",
"kkkkkkkkkkkkkkkkkkkkkkkkkkkk=OoOoo*2kkkkkkkkkkkkkkkkkkkkkkkkkkkk",
"kkkkkkkkkkkkkkkkkkkkkkkkkkkkk5;@=5kkkkkkkkkkkkkkkkkkkkkkkkkkkkkk"
};
