/* XPM */
static char *b5973d1eb5a74edadb1fd3507bc5adf0[] = {
/* columns rows colors chars-per-pixel */
"16 16 55 1 ",
"  c gray10",
". c #282828",
"X c gray16",
"o c gray18",
"O c #2F2F2F",
"+ c gray20",
"@ c #373737",
"# c #3F3F3F",
"$ c #414141",
"% c gray27",
"& c #4D4C4C",
"* c #4E4D4D",
"= c #4F4E4E",
"- c #515050",
"; c #515151",
": c #525151",
"> c #555555",
", c #595858",
"< c #5B5A5A",
"1 c #5C5B5B",
"2 c #5E5D5D",
"3 c #5F5E5E",
"4 c #606060",
"5 c #616060",
"6 c #626161",
"7 c #626262",
"8 c gray39",
"9 c #656464",
"0 c #686767",
"q c gray42",
"w c #706F6F",
"e c gray44",
"r c gray45",
"t c #747474",
"y c #757474",
"u c #767676",
"i c #777676",
"p c gray47",
"a c #797979",
"s c #7A7979",
"d c #7D7C7C",
"f c gray49",
"g c #7E7E7E",
"h c #818080",
"j c #848383",
"k c #868585",
"l c #878686",
"z c gray53",
"x c #888888",
"c c gray56",
"v c #939292",
"b c #959595",
"n c #999898",
"m c gray62",
"M c None",
/* pixels */
"MMMMMM-=MMMMMMMM",
"MMMMa5tf1amMMMMM",
"MMv5MMMMMM>lMMMM",
"M3fMMMMMMMM05MMM",
"q<MMMMMMMMMM98MM",
"jMMMMMMMMMMMMtMM",
"xMMMMMMMMMMMMiMM",
"tMM M.OMO$MMMtMM",
"tMM.+@OM#%%MMaMM",
"zMMMMMMMMMMMMrMM",
"zMMMMMMMMMMMMaMM",
"e<MMMMMMMMMM55MM",
"M<fMMMMMMMMM9MMM",
"MMc3MMMMMM-hMMMM",
"MMMbe=MM*wnMMMMM",
"MMMMMM--zMMMMMMM"
};
